<svg width="18" height="18" viewBox="0 0 18 18" fill="none" xmlns="http://www.w3.org/2000/svg">
<path d="M3.98918 10.878L3.36263 13.217L1.07258 13.2654C0.388195 11.996 0 10.5437 0 9.00034C0 7.50792 0.362953 6.10055 1.00631 4.86133H1.0068L3.04559 5.23511L3.9387 7.26166C3.75177 7.80661 3.64989 8.39161 3.64989 9.00034C3.64996 9.661 3.76963 10.294 3.98918 10.878Z" fill="#FBBB00"/>
<path d="M17.8428 7.31836C17.9461 7.86279 18 8.42504 18 8.99967C18 9.64402 17.9323 10.2725 17.8032 10.8788C17.3651 12.9419 16.2203 14.7434 14.6344 16.0182L14.6339 16.0177L12.066 15.8867L11.7025 13.6179C12.7548 13.0007 13.5772 12.035 14.0104 10.8788H9.19788V7.31836H14.0806H17.8428Z" fill="#518EF8"/>
<path d="M14.6339 16.0183L14.6344 16.0188C13.0921 17.2585 11.1328 18.0003 9.00005 18.0003C5.57263 18.0003 2.59275 16.0846 1.07263 13.2654L3.98923 10.8779C4.74927 12.9064 6.70603 14.3503 9.00005 14.3503C9.98608 14.3503 10.9098 14.0838 11.7025 13.6185L14.6339 16.0183Z" fill="#28B446"/>
<path d="M14.7447 2.07197L11.8291 4.45894C11.0087 3.94615 10.039 3.64992 9.00004 3.64992C6.65409 3.64992 4.66073 5.16013 3.93877 7.26131L1.00684 4.86098H1.00635C2.50421 1.97307 5.52168 0 9.00004 0C11.1838 0 13.186 0.777867 14.7447 2.07197Z" fill="#F14336"/>
</svg>
