<svg width="95" height="37" viewBox="0 0 95 37" fill="none" xmlns="http://www.w3.org/2000/svg">
<path d="M48.4786 24.6209C48.9039 24.6209 49.2922 24.5932 49.6435 24.5377L49.5881 25.6194C49.1998 25.675 48.7837 25.7027 48.34 25.7027C46.953 25.7027 45.8805 25.3051 45.1224 24.51C44.3827 23.6963 44.0128 22.6145 44.0128 21.2647V13.1098H41.3223V12.1112H44.0128V7.92285H45.1778V12.1112H49.2275V13.1098H45.1778V21.015C45.1778 22.1985 45.4552 23.0953 46.0099 23.7056C46.5647 24.3157 47.3876 24.6209 48.4786 24.6209Z" fill="#5649CF"/>
<path d="M57.3671 11.7783C60.4367 11.7783 61.9716 13.4334 61.9716 16.7434V25.5362H60.7789V23.0675C60.372 23.9182 59.7802 24.5746 59.0036 25.0369C58.2454 25.4992 57.3763 25.7303 56.3963 25.7303C55.5456 25.7303 54.7598 25.5547 54.0385 25.2033C53.3358 24.852 52.7718 24.3712 52.3466 23.7609C51.9397 23.1322 51.7363 22.4481 51.7363 21.7084C51.7363 20.7099 51.9953 19.9424 52.513 19.4062C53.0493 18.8514 53.9184 18.4538 55.1203 18.2134C56.3407 17.9731 58.042 17.8528 60.224 17.8528H60.7789V16.6878C60.7789 15.3749 60.5199 14.4226 60.0022 13.8309C59.4844 13.2207 58.6615 12.9155 57.5335 12.9155C56.6644 12.9155 55.86 13.0358 55.1203 13.2761C54.3992 13.4981 53.641 13.8679 52.8458 14.3856L52.2911 13.3871C52.9753 12.8878 53.7612 12.4995 54.6488 12.2221C55.5549 11.9263 56.461 11.7783 57.3671 11.7783ZM56.3963 24.5653C57.2284 24.5653 57.9773 24.3712 58.643 23.9829C59.3088 23.5761 59.8265 23.0212 60.1963 22.3187C60.5846 21.616 60.7789 20.8207 60.7789 19.9332V18.9346H60.2518C58.3101 18.9346 56.8308 19.0178 55.8138 19.1842C54.7968 19.3322 54.0848 19.6003 53.678 19.9886C53.2711 20.3585 53.0677 20.9133 53.0677 21.653C53.0677 22.5035 53.3821 23.2062 54.0108 23.7609C54.6395 24.2972 55.4347 24.5653 56.3963 24.5653Z" fill="#5649CF"/>
<path d="M77.7121 12.1111V24.8982C77.7121 26.8214 77.2591 28.2729 76.353 29.253C75.4469 30.233 74.0969 30.7231 72.3033 30.7231C70.0658 30.7231 68.1704 30.0852 66.617 28.8092L67.1718 27.8384C68.0964 28.5041 68.9285 28.9572 69.6682 29.1976C70.4079 29.4565 71.2955 29.5859 72.331 29.5859C73.7179 29.5859 74.7719 29.1976 75.4932 28.4209C76.2143 27.6628 76.5749 26.544 76.5749 25.0646V22.1521C76.1866 23.1138 75.5763 23.8535 74.7442 24.3712C73.9305 24.8705 72.9412 25.1201 71.7763 25.1201C70.5928 25.1201 69.5388 24.8427 68.6141 24.288C67.7081 23.7332 66.9961 22.9474 66.4783 21.9303C65.979 20.9133 65.7295 19.7483 65.7295 18.4354C65.7295 17.1224 65.979 15.9667 66.4783 14.9682C66.9961 13.9511 67.7081 13.1652 68.6141 12.6104C69.5388 12.0557 70.5928 11.7783 71.7763 11.7783C72.9227 11.7783 73.9028 12.028 74.7165 12.5272C75.53 13.0265 76.1403 13.7385 76.5471 14.663V12.1111H77.7121ZM71.7763 23.9829C73.2741 23.9829 74.4391 23.4928 75.2712 22.5128C76.1219 21.5143 76.5471 20.155 76.5471 18.4354C76.5471 16.7156 76.1219 15.3657 75.2712 14.3856C74.4391 13.4055 73.2741 12.9155 71.7763 12.9155C70.2969 12.9155 69.1227 13.4055 68.2535 14.3856C67.403 15.3657 66.9777 16.7156 66.9777 18.4354C66.9777 20.1736 67.403 21.5327 68.2535 22.5128C69.1227 23.4928 70.2969 23.9829 71.7763 23.9829Z" fill="#5649CF"/>
<path d="M82.4361 12.1122H83.601V25.5373H82.4361V12.1122ZM83.9061 6.62012V8.36758H82.1309V6.62012H83.9061Z" fill="#5649CF"/>
<path d="M93.335 24.6209C93.7603 24.6209 94.1486 24.5932 94.5 24.5377L94.4446 25.6194C94.0562 25.675 93.6402 25.7027 93.1963 25.7027C91.8094 25.7027 90.737 25.3051 89.9787 24.51C89.239 23.6963 88.8693 22.6145 88.8693 21.2647V13.1098H86.1787V12.1112H88.8693V7.92285H90.0343V12.1112H94.0839V13.1098H90.0343V21.015C90.0343 22.1985 90.3116 23.0953 90.8664 23.7056C91.4211 24.3157 92.2439 24.6209 93.335 24.6209Z" fill="#5649CF"/>
<path d="M0.179223 23.0075V15.9133L0.178711 15.8657L0.179223 15.818V4.13283C0.179223 2.13645 1.79773 0.517578 3.79448 0.517578C5.79121 0.517578 7.40972 2.13645 7.40972 4.13283V13.0157H11.5735C13.1473 13.0157 14.4236 14.2916 14.4236 15.8657C14.4236 17.4398 13.1473 18.7158 11.5735 18.7158H7.40972V23.0075C7.40972 26.6449 10.3591 29.5942 13.9964 29.5942C17.6343 29.5942 20.5836 26.645 20.5836 23.0075V13.0157H27.8142V23.0075C27.8142 30.6385 21.6281 36.8247 13.9964 36.8247C6.36534 36.8247 0.179223 30.6386 0.179223 23.0075Z" fill="#5649CF"/>
<path d="M24.1983 0.517578C26.1953 0.517578 27.8141 2.1362 27.8141 4.13283V7.74527H20.583V4.13283C20.583 2.13608 22.2018 0.517578 24.1983 0.517578Z" fill="#5649CF"/>
</svg>
